<svg height="512.00001pt" viewBox="0 0 512.00001 512.00001" width="512.00001pt" xmlns="http://www.w3.org/2000/svg"><path d="m512 256c0 141.386719-114.613281 256-256 256s-256-114.613281-256-256 114.613281-256 256-256 256 114.613281 256 256zm0 0" fill="#8f95e6"/><path d="m256 492c-138.035156 0-250.53125-109.253906-255.789062-246-.1250005 3.320312-.210938 6.648438-.210938 10 0 141.382812 114.617188 256 256 256s256-114.617188 256-256c0-3.351562-.085938-6.679688-.210938-10-5.257812 136.746094-117.753906 246-255.789062 246zm0 0" fill="#6770e6"/><path d="m307.984375 99.601562c-2.246094-8.675781-11.820313-20.976562-48.109375-20.976562-56.066406 0-64.050781 8.300781-78.972656-6.035156-12.589844-12.101563-19.980469 46.125-3.195313 64.613281-7.085937 26.1875-1.417969 52.417969-1.417969 52.417969h157.746094c-.003906.003906 13.238282-61.269532-26.050781-90.019532zm0 0" fill="#339"/><path d="m180.902344 86.589844c14.921875 14.339844 22.90625 6.035156 78.972656 6.035156 36.289062 0 45.867188 12.300781 48.109375 20.980469 20.894531 15.285156 26.929687 39.769531 28.003906 59.347656 1.054688-20.25-1.683593-54.089844-28.003906-73.347656-2.246094-8.679688-11.820313-20.980469-48.109375-20.980469-56.066406 0-64.050781 8.304688-78.972656-6.035156-8.273438-7.953125-14.300782 14.476562-12.695313 36.03125 1.164063-15.9375 6.242188-28.234375 12.695313-22.03125zm0 0" fill="#5861c7"/><path d="m192.21875 192.378906s-6.800781-12.457031-20.402344-12.457031c-13.601562 0-23.234375 59.796875 20.402344 49.832031zm0 0" fill="#ffe4d1"/><path d="m318.105469 192.378906s6.796875-12.457031 20.402343-12.457031c13.597657 0 23.230469 59.796875-20.402343 49.832031zm0 0" fill="#ffe4d1"/><path d="m255.160156 112.253906c-104.199218 0-84.277344 170.894532 0 170.894532s104.203125-170.894532 0-170.894532zm0 0" fill="#ffefe4"/><path d="m255.160156 102.949219s-70.875-9.996094-70.875 80.941406c0 0 8.921875-37.585937 29.398438-47.839844 9.535156-4.773437 13.027344 7.320313 41.476562 7.320313 28.449219 0 31.941406-12.09375 41.476563-7.320313 20.476562 10.25 29.398437 47.839844 29.398437 47.839844 0-90.941406-70.875-80.941406-70.875-80.941406zm0 0" fill="#339"/><path d="m369.894531 327.824219-64.03125-21.039063c-6.042969-1.984375-10.144531-7.601562-10.203125-13.960937l-.226562-25.855469c-10.703125 9.636719-24.027344 15.605469-39.605469 15.746094-15.578125.136718-29.003906-5.601563-39.875-15.042969l.21875 24.949219c.058594 6.457031-4.070313 12.207031-10.207031 14.222656l-64.007813 20.992188c-19.171875 6.289062-32.132812 24.179687-32.132812 44.355468v93.980469c40.550781 28.253906 89.65625 45.070313 142.65625 45.785156h7.042969c52.925781-.714843 101.964843-17.484375 142.480468-45.664062v-94.121094c0-20.167969-12.949218-38.054687-32.109375-44.347656zm0 0" fill="#ff8354"/><path d="m402.003906 446.292969c-41.410156 28.808593-91.730468 45.707031-146.003906 45.707031-54.351562 0-104.734375-16.945312-146.179688-45.828125v20c.003907 0 .007813.003906.007813.003906 5.0625 3.527344 10.261719 6.875 15.582031 10.039063.007813.003906.015625.007812.023438.015625 5.320312 3.160156 10.761718 6.132812 16.320312 8.90625.007813.007812.019532.011719.03125.015625 5.558594 2.777344 11.230469 5.355468 17.007813 7.730468.007812.003907.015625.007813.027343.011719 28.941407 11.882813 60.539063 18.617188 93.660157 19.066407h7.042969c26.460937-.359376 51.953124-4.730469 75.890624-12.53125h.003907c5.980469-1.953126 11.863281-4.117188 17.640625-6.484376.007812 0 .015625-.003906.027344-.007812 5.773437-2.371094 11.441406-4.945312 16.992187-7.710938.011719-.003906.019531-.007812.023437-.011718 5.554688-2.769532 10.996094-5.738282 16.308594-8.890625.007813-.003907.011719-.007813.019532-.011719 5.316406-3.15625 10.511718-6.496094 15.574218-10.019531h.003906v-20zm0 0" fill="#e0734a"/><path d="m253.628906 362.8125c32.832032 0 60.839844-20.609375 71.828125-49.589844l-19.59375-6.4375c-6.042969-1.988281-10.144531-7.601562-10.203125-13.960937l-.226562-25.855469c-10.703125 9.636719-24.027344 15.605469-39.605469 15.746094-15.578125.136718-29.003906-5.601563-39.875-15.042969l.21875 24.949219c.054687 6.457031-4.070313 12.207031-10.207031 14.222656l-23.621094 7.746094c11.339844 28.257812 38.972656 48.222656 71.285156 48.222656zm0 0" fill="#ffe4d1"/><path d="m256 20c138.035156 0 250.53125 109.253906 255.789062 246 .125-3.320312.210938-6.648438.210938-10 0-141.382812-114.617188-256-256-256s-256 114.617188-256 256c0 3.351562.0859375 6.679688.210938 10 5.257812-136.746094 117.753906-246 255.789062-246zm0 0" fill="#9fa5ff"/><path d="m74.964844 307.089844v129.914062c45.558594 45.5625 108.214844 74.015625 177.515625 74.953125h7.042969c.125-.003906.253906-.003906.382812-.003906v-153.140625l-177.066406-57.445312c-3.886719-1.261719-7.875 1.636718-7.875 5.722656zm0 0" fill="#69ebfc"/><path d="m256 492c-70.710938 0-134.710938-28.679688-181.035156-75.023438v20.03125c.546875.542969 1.105468 1.074219 1.65625 1.613282.894531.882812 1.785156 1.765625 2.695312 2.636718.714844.679688 1.445313 1.34375 2.164063 2.015626.761719.710937 1.519531 1.429687 2.292969 2.132812.78125.710938 1.582031 1.410156 2.375 2.113281.722656.640625 1.441406 1.289063 2.167968 1.925781.847656.734376 1.714844 1.453126 2.574219 2.179688.6875.582031 1.371094 1.171875 2.066406 1.746094.914063.753906 1.839844 1.492187 2.765625 2.234375.652344.527343 1.300782 1.0625 1.960938 1.582031.976562.769531 1.96875 1.523438 2.960937 2.28125.621094.472656 1.230469.953125 1.851563 1.421875 1.039062.773437 2.085937 1.535156 3.132812 2.296875.59375.429688 1.175782.867188 1.773438 1.289062 1.09375.785157 2.203125 1.546876 3.308594 2.3125.558593.386719 1.113281.777344 1.675781 1.160157 1.15625.785156 2.328125 1.550781 3.5 2.320312.519531.339844 1.042969.691407 1.566406 1.03125 1.207031.777344 2.433594 1.542969 3.660156 2.304688.496094.308593.992188.625 1.492188.929687 1.269531.777344 2.550781 1.535156 3.839843 2.292969.457032.269531.917969.546875 1.378907.816406 1.332031.769531 2.675781 1.523438 4.023437 2.269531.425782.238282.851563.480469 1.277344.714844 1.390625.761719 2.789062 1.503906 4.195312 2.242188.394532.203125.785157.417968 1.179688.621094 1.449219.75 2.910156 1.480468 4.378906 2.207031.355469.171875.707032.351562 1.0625.527343 1.507813.734376 3.027344 1.453126 4.550782 2.15625.324218.152344.644531.304688.96875.453126 1.5625.71875 3.140624 1.414062 4.722656 2.101562.285156.121094.570312.25.859375.375 1.617187.695312 3.25 1.371094 4.886719 2.035156.253906.101563.507812.207032.765624.3125 1.671876.667969 3.351563 1.320313 5.039063 1.957032.226563.085937.453125.171874.679687.257812 1.722657.644531 3.453126 1.265625 5.195313 1.875.195313.066406.386719.136719.582031.207031 1.773438.613281 3.558594 1.207031 5.347656 1.78125.164063.054688.328126.109375.492188.160157 1.824219.582031 3.65625 1.144531 5.496094 1.6875.136718.039062.269531.082031.40625.121093 1.871094.546875 3.75 1.074219 5.640625 1.578125.105469.027344.210937.058594.316406.085938 1.914063.511718 3.839844 1 5.773437 1.46875.082032.019531.164063.039062.246094.058594 1.957032.46875 3.925782.917968 5.898438 1.34375.058594.011718.117187.023437.171875.039062 1.996093.425781 4 .832031 6.015625 1.214844.039062.007812.078125.015625.117187.023437 2.03125.382813 4.070313.742188 6.117188 1.078125.023437.003906.046875.007813.066406.011719 2.0625.335937 4.132813.652344 6.214844.9375.007812 0 .015625.003906.023437.003906 10.460938 1.449219 21.121094 2.265625 31.945313 2.414063h7.042969.03125c.121093-.003906.234374-.003906.351562-.003906v-20c-1.300781.011718-2.601562.039062-3.90625.039062zm0 0" fill="#5fd4e3"/><path d="m444.84375 428.828125v-121.738281c0-4.085938-3.984375-6.984375-7.871094-5.722656l-177.066406 57.445312v153.140625c73.199219-1.097656 138.953125-32.902344 184.9375-83.125zm0 0" fill="#a1f1fc"/><path d="m444.84375 408.804688c-45.980469 50.234374-111.730469 82.054687-184.9375 83.148437v20c38.878906-.582031 75.652344-9.828125 108.484375-25.894531.035156-.015625.0625-.03125.09375-.042969 1.871094-.917969 3.726563-1.855469 5.566406-2.816406.132813-.066407.257813-.136719.390625-.203125 1.742188-.910156 3.472656-1.84375 5.195313-2.792969.199219-.109375.398437-.222656.597656-.332031 1.644531-.914063 3.28125-1.847656 4.902344-2.796875.25-.148438.5-.296875.753906-.445313 1.566406-.925781 3.121094-1.863281 4.667969-2.820312.289062-.179688.570312-.359375.855468-.535156 1.507813-.9375 3-1.894532 4.480469-2.863282.3125-.203125.621094-.40625.929688-.609375 1.453125-.957031 2.894531-1.929687 4.324219-2.917969.324218-.226562.648437-.449218.972656-.671874 1.410156-.984376 2.808594-1.976563 4.195312-2.988282.328125-.238281.660156-.480468.988282-.71875 1.375-1.011718 2.734374-2.03125 4.085937-3.066406.332031-.253906.664063-.507812.996094-.761719 1.34375-1.039062 2.675781-2.089843 3.996093-3.15625.324219-.257812.648438-.519531.972657-.78125 1.324219-1.078125 2.636719-2.167969 3.941406-3.273437.304687-.257813.609375-.511719.914063-.773438 1.316406-1.125 2.621093-2.265625 3.914062-3.414062.277344-.25.5625-.496094.839844-.746094 1.316406-1.183594 2.621094-2.382812 3.914062-3.59375.242188-.226562.484375-.449219.726563-.671875 1.332031-1.257813 2.648437-2.535156 3.957031-3.820313.191406-.1875.382812-.371093.574219-.558593 1.371093-1.359375 2.722656-2.734375 4.0625-4.121094.117187-.121094.238281-.238281.351562-.359375 1.4375-1.496094 2.859375-3.007812 4.261719-4.539062.011719-.011719.023438-.023438.039062-.039063v-20.023437zm0 0" fill="#69ebfc"/><path d="m295.601562 465.015625 119.984376-38.925781c4.296874-1.394532 7.207031-5.398438 7.207031-9.917969v-69.410156c0-7.082031-6.910157-12.101563-13.644531-9.917969l-119.984376 38.925781c-4.296874 1.394531-7.207031 5.398438-7.207031 9.917969v69.410156c0 7.082032 6.910157 12.101563 13.644531 9.917969zm0 0" fill="#69ebfc"/><g fill="#5fd4e3"><path d="m228.144531 391.1875-45.527343-14.855469c-3.210938-1.046875-5.382813-4.039062-5.382813-7.417969 0-5.300781 5.179687-9.058593 10.222656-7.414062l45.523438 14.855469c3.210937 1.046875 5.382812 4.039062 5.382812 7.414062 0 5.304688-5.175781 9.058594-10.21875 7.417969zm0 0"/><path d="m228.144531 417.597656-45.527343-14.855468c-3.210938-1.046876-5.382813-4.039063-5.382813-7.417969 0-5.300781 5.179687-9.058594 10.222656-7.414063l45.523438 14.855469c3.210937 1.046875 5.382812 4.039063 5.382812 7.414063 0 5.304687-5.175781 9.058593-10.21875 7.417968zm0 0"/><path d="m228.144531 443.527344-45.527343-14.855469c-3.210938-1.046875-5.382813-4.039063-5.382813-7.414063 0-5.304687 5.179687-9.0625 10.222656-7.417968l45.523438 14.855468c3.210937 1.046876 5.382812 4.039063 5.382812 7.414063 0 5.304687-5.175781 9.0625-10.21875 7.417969zm0 0"/><path d="m228.15625 469.925781-125.230469-40.628906c-3.21875-1.042969-5.394531-4.039063-5.394531-7.421875v-.007812c0-5.296876 5.167969-9.054688 10.207031-7.417969l125.230469 40.628906c3.21875 1.042969 5.394531 4.039063 5.394531 7.417969v.011718c0 5.296876-5.167969 9.050782-10.207031 7.417969zm0 0"/></g><path d="m154.304688 419.582031-49.566407-16.078125c-4.296875-1.394531-7.207031-5.398437-7.207031-9.917968v-46.824219c0-7.082031 6.910156-12.101563 13.644531-9.917969l49.5625 16.082031c4.300781 1.390625 7.210938 5.394531 7.210938 9.917969v46.820312c-.003907 7.082032-6.910157 12.105469-13.644531 9.917969zm0 0" fill="#ff8354"/></svg>